<?xml version="1.0" encoding="UTF-8"?>
<svg xmlns="http://www.w3.org/2000/svg" xmlns:xlink="http://www.w3.org/1999/xlink" width="375pt" height="374.999991pt" viewBox="0 0 375 374.999991" version="1.2">
<g id="surface1">
<path style=" stroke:none;fill-rule:nonzero;fill:rgb(13.328552%,0%,32.159424%);fill-opacity:1;" d="M 243.464844 54.308594 L 183.675781 44.003906 L 146.9375 92.285156 L 169.15625 148.761719 L 228.945312 159.066406 L 265.683594 110.785156 Z M 243.464844 54.308594 "/>
<path style=" stroke:none;fill-rule:nonzero;fill:rgb(100%,100%,100%);fill-opacity:1;" d="M 206.722656 102.585938 L 146.9375 92.285156 L 169.15625 148.761719 L 228.945312 159.066406 L 210.160156 111.320312 Z M 206.722656 102.585938 "/>
<path style=" stroke:none;fill-rule:nonzero;fill:rgb(13.328552%,0%,32.159424%);fill-opacity:1;" d="M 243.464844 54.308594 L 206.722656 102.585938 L 228.945312 159.066406 L 265.683594 110.785156 L 254.988281 83.601562 Z M 243.464844 54.308594 "/>
<path style=" stroke:none;fill-rule:nonzero;fill:rgb(100%,100%,100%);fill-opacity:1;" d="M 243.464844 54.308594 L 183.675781 44.003906 L 146.9375 92.285156 L 206.722656 102.585938 Z M 243.464844 54.308594 "/>
<path style=" stroke:none;fill-rule:nonzero;fill:rgb(13.328552%,0%,32.159424%);fill-opacity:1;" d="M 83.703125 327.886719 L 174.035156 314.65625 L 204 228.417969 L 145.800781 158.03125 L 55.46875 171.261719 L 25.503906 257.5 Z M 83.703125 327.886719 "/>
<path style=" stroke:none;fill-rule:nonzero;fill:rgb(100%,100%,100%);fill-opacity:1;" d="M 113.667969 241.648438 L 204 228.417969 L 145.800781 158.03125 L 55.46875 171.261719 L 104.667969 230.761719 Z M 113.667969 241.648438 "/>
<path style=" stroke:none;fill-rule:nonzero;fill:rgb(13.328552%,0%,32.159424%);fill-opacity:1;" d="M 83.703125 327.886719 L 113.667969 241.648438 L 55.46875 171.261719 L 25.503906 257.5 L 53.519531 291.382812 Z M 83.703125 327.886719 "/>
<path style=" stroke:none;fill-rule:nonzero;fill:rgb(100%,100%,100%);fill-opacity:1;" d="M 83.703125 327.886719 L 174.035156 314.65625 L 204 228.417969 L 113.667969 241.648438 Z M 83.703125 327.886719 "/>
<path style=" stroke:none;fill-rule:nonzero;fill:rgb(13.328552%,0%,32.159424%);fill-opacity:1;" d="M 219.492188 226.234375 L 232.347656 285.527344 L 290.878906 301.492188 L 334.910156 259.726562 L 322.058594 200.4375 L 263.527344 184.46875 Z M 219.492188 226.234375 "/>
<path style=" stroke:none;fill-rule:nonzero;fill:rgb(100%,100%,100%);fill-opacity:1;" d="M 278.023438 242.203125 L 290.878906 301.492188 L 334.910156 259.726562 L 322.058594 200.4375 L 284.832031 235.742188 Z M 278.023438 242.203125 "/>
<path style=" stroke:none;fill-rule:nonzero;fill:rgb(13.328552%,0%,32.159424%);fill-opacity:1;" d="M 219.492188 226.234375 L 278.023438 242.203125 L 322.058594 200.4375 L 263.527344 184.46875 L 242.332031 204.574219 Z M 219.492188 226.234375 "/>
<path style=" stroke:none;fill-rule:nonzero;fill:rgb(100%,100%,100%);fill-opacity:1;" d="M 219.492188 226.234375 L 232.347656 285.527344 L 290.878906 301.492188 L 278.023438 242.203125 Z M 219.492188 226.234375 "/>
</g>
</svg>
